<?xml version="1.0" standalone="no"?><!-- Generator: Gravit.io --><svg xmlns="http://www.w3.org/2000/svg" xmlns:xlink="http://www.w3.org/1999/xlink" style="isolation:isolate" viewBox="-96 -9.5 33 33" width="33" height="33"><g id="Group"><path d=" M -68.5 -4 L -90.5 -4 C -92.012 -4 -93.236 -2.762 -93.236 -1.25 L -93.25 15.25 C -93.25 16.763 -92.012 18 -90.5 18 L -68.5 18 C -66.987 18 -65.75 16.763 -65.75 15.25 L -65.75 -1.25 C -65.75 -2.762 -66.987 -4 -68.5 -4 Z  M -68.5 1.5 L -79.5 8.375 L -90.5 1.5 L -90.5 -1.25 L -79.5 5.625 L -68.5 -1.25 L -68.5 1.5 Z " fill="rgb(33,37,41)"/><path d=" M -96 -9.5 L -63 -9.5 L -63 23.5 L -96 23.5 L -96 -9.5 Z " fill="none"/></g></svg>